<svg width="16" height="12" viewBox="0 0 16 12" fill="none" xmlns="http://www.w3.org/2000/svg">
<g clip-path="url(#clip0_787_48247)">
<path fill-rule="evenodd" clip-rule="evenodd" d="M0 0H22.8V0.923438H0V0ZM0 1.84688H22.8V2.77031H0V1.84688ZM0 3.69141H22.8V4.61719H0V3.69141ZM0 5.53828H22.8V6.46172H0V5.53828ZM0 7.38516H22.8V8.30859H0V7.38516ZM0 9.22969H22.8V10.1531H0V9.22969ZM0 11.0766H22.8V12H0V11.0766Z" fill="#BD3D44"/>
<path fill-rule="evenodd" clip-rule="evenodd" d="M0 0.92334H22.8V1.84678H0V0.92334ZM0 2.77021H22.8V3.69131H0V2.77021ZM0 4.61475H22.8V5.53818H0V4.61475ZM0 6.46162H22.8V7.38506H0V6.46162ZM0 8.3085H22.8V9.23193H0V8.3085ZM0 10.153H22.8V11.0765H0V10.153Z" fill="white"/>
<path fill-rule="evenodd" clip-rule="evenodd" d="M0 0H9.11953V6.46172H0V0Z" fill="#192F5D"/>
<path fill-rule="evenodd" clip-rule="evenodd" d="M0.759277 0.276367L0.843652 0.531836H1.11084L0.895215 0.688867L0.977246 0.946679L0.759277 0.787304L0.543652 0.944336L0.625684 0.688867L0.407715 0.531836H0.67959L0.759277 0.276367ZM2.28037 0.276367L2.3624 0.531836H2.63193L2.41396 0.688867L2.496 0.946679L2.28037 0.787304L2.0624 0.944336L2.14443 0.688867L1.92881 0.531836H2.196L2.28037 0.276367ZM3.79912 0.276367L3.8835 0.531836H4.14834L3.93271 0.688867L4.01475 0.946679L3.79678 0.787304L3.58115 0.944336L3.66318 0.688867L3.44521 0.531836H3.71475L3.79912 0.276367ZM5.32022 0.276367L5.40225 0.531836H5.67178L5.45381 0.688867L5.53818 0.946679L5.32022 0.787304L5.10225 0.944336L5.18662 0.688867L4.96865 0.531836H5.23584L5.32022 0.276367ZM6.83896 0.276367L6.92334 0.531836H7.19053L6.9749 0.688867L7.05693 0.946679L6.83896 0.787304L6.62334 0.944336L6.70537 0.688867L6.48975 0.531836H6.75693L6.83896 0.276367ZM8.36006 0.276367L8.44209 0.531836H8.71162L8.49365 0.688867L8.57803 0.946679L8.36006 0.787304L8.14209 0.944336L8.22647 0.688867L8.0085 0.531836H8.27803L8.36006 0.276367ZM1.521 0.923242L1.60303 1.17871H1.87256L1.65459 1.33574L1.73428 1.59121L1.52334 1.43418L1.30537 1.59121L1.38271 1.33574L1.17178 1.17871H1.43896L1.521 0.923242ZM3.03975 0.923242L3.12412 1.17871H3.39131L3.17334 1.33574L3.25771 1.59121L3.03975 1.43418L2.82178 1.59121L2.90615 1.33574L2.68818 1.17871H2.95771L3.03975 0.923242ZM4.56084 0.923242L4.64287 1.17871H4.9124L4.69443 1.33574L4.77646 1.59121L4.56084 1.43418L4.34287 1.59121L4.4249 1.33574L4.20928 1.17871H4.47647L4.56084 0.923242ZM6.07959 0.923242L6.16397 1.17871H6.43115L6.21318 1.33574L6.29756 1.59121L6.07959 1.43418L5.86397 1.59121L5.946 1.33574L5.72803 1.17871H5.9999L6.07959 0.923242ZM7.60068 0.923242L7.68271 1.17871H7.95225L7.73428 1.33574L7.81631 1.59121L7.60068 1.43418L7.38272 1.59121L7.46475 1.33574L7.24912 1.17871H7.51631L7.60068 0.923242ZM0.759277 1.56777L0.843652 1.82793H1.11084L0.895215 1.98496L0.977246 2.24043L0.759277 2.08105L0.543652 2.24043L0.625684 1.98262L0.407715 1.82559H0.67959L0.759277 1.56777ZM2.28037 1.56777L2.3624 1.82559H2.63193L2.41396 1.98262L2.496 2.23808L2.28037 2.07871L2.0624 2.23808L2.14443 1.98027L1.92881 1.82324H2.196L2.28037 1.56777ZM3.79912 1.56777L3.8835 1.82559H4.14834L3.93271 1.98262L4.01475 2.23808L3.79678 2.07871L3.58115 2.23808L3.66318 1.98027L3.44521 1.82324H3.71475L3.79912 1.56777ZM5.32022 1.56777L5.40225 1.82559H5.67178L5.45381 1.98262L5.53818 2.23808L5.32022 2.07871L5.10225 2.23808L5.18662 1.98027L4.96865 1.82324H5.23584L5.32022 1.56777ZM6.83896 1.56777L6.92334 1.82559H7.19053L6.9749 1.98262L7.05693 2.23808L6.83896 2.07871L6.62334 2.23808L6.70537 1.98027L6.48975 1.82324H6.75693L6.83896 1.56777ZM8.36006 1.56777L8.44209 1.82559H8.71162L8.49365 1.98262L8.57803 2.23808L8.36006 2.07871L8.14209 2.23808L8.22647 1.98027L8.0085 1.82324H8.27803L8.36006 1.56777ZM1.521 2.21465L1.60303 2.47012H1.87256L1.65459 2.62715L1.73662 2.88496L1.521 2.72558L1.30303 2.88262L1.38506 2.62715L1.16943 2.47012H1.43662L1.521 2.21465ZM3.03975 2.21465L3.12412 2.47012H3.39131L3.17334 2.62715L3.25771 2.88496L3.03975 2.72558L2.82178 2.88262L2.90615 2.62715L2.68818 2.47012H2.95771L3.03975 2.21465ZM4.56084 2.21465L4.64287 2.47012H4.9124L4.69443 2.62715L4.77646 2.88496L4.56084 2.72558L4.34287 2.88262L4.4249 2.62715L4.20928 2.47012H4.47647L4.56084 2.21465ZM6.07959 2.21465L6.16397 2.47012H6.43115L6.21553 2.62715L6.29756 2.88496L6.07959 2.72558L5.86397 2.88262L5.946 2.62715L5.72803 2.47012H5.9999L6.07959 2.21465ZM7.60068 2.21465L7.68271 2.47012H7.95225L7.73428 2.62715L7.81631 2.88496L7.60068 2.72558L7.38272 2.88262L7.46475 2.62715L7.24912 2.47012H7.51631L7.60068 2.21465ZM0.759277 2.86152L0.843652 3.11699H1.11084L0.895215 3.27402L0.977246 3.53183L0.759277 3.37246L0.543652 3.52949L0.625684 3.27402L0.407715 3.11699H0.67959L0.759277 2.86152ZM2.28037 2.86152L2.3624 3.11699H2.63193L2.41396 3.27402L2.496 3.52949L2.28037 3.37246L2.0624 3.52949L2.14443 3.27402L1.92881 3.11699H2.196L2.28037 2.86152ZM3.79912 2.86152L3.8835 3.11699H4.14834L3.93271 3.27402L4.01475 3.53183L3.79678 3.37246L3.58115 3.52949L3.66318 3.27402L3.44521 3.11699H3.71475L3.79912 2.86152ZM5.32022 2.86152L5.40225 3.11699H5.67178L5.45381 3.27402L5.53818 3.53183L5.32022 3.37246L5.10225 3.52949L5.18662 3.27402L4.96865 3.11699H5.23584L5.32022 2.86152ZM6.83896 2.86152L6.92334 3.11699H7.19053L6.9749 3.27402L7.05693 3.53183L6.83896 3.37246L6.62334 3.52949L6.70537 3.27402L6.48975 3.11699H6.75693L6.83896 2.86152ZM8.36006 2.86152L8.44209 3.11699H8.71162L8.49365 3.27402L8.57803 3.53183L8.36006 3.37246L8.14209 3.52949L8.22647 3.27402L8.0085 3.11699H8.27803L8.36006 2.86152ZM1.521 3.5084L1.60303 3.76387H1.87256L1.65459 3.9209L1.73662 4.17636L1.521 4.01699L1.30303 4.17636L1.38506 3.91855L1.16943 3.76152H1.43662L1.521 3.5084ZM3.03975 3.5084L3.12412 3.76387H3.39131L3.17334 3.9209L3.25771 4.17636L3.03975 4.01699L2.82178 4.17636L2.90615 3.91855L2.68818 3.76152H2.95771L3.03975 3.5084ZM4.56084 3.5084L4.64287 3.76387H4.9124L4.69443 3.9209L4.77646 4.17636L4.56084 4.01699L4.34287 4.17636L4.4249 3.91855L4.20928 3.76152H4.47647L4.56084 3.5084ZM6.07959 3.5084L6.16397 3.76387H6.43115L6.21553 3.9209L6.29756 4.17636L6.07959 4.01699L5.86397 4.17636L5.946 3.91855L5.72803 3.76152H5.9999L6.07959 3.5084ZM7.60068 3.5084L7.68271 3.76387H7.95225L7.73428 3.9209L7.81631 4.17636L7.60068 4.01699L7.38272 4.17636L7.46475 3.91855L7.24912 3.76152H7.51631L7.60068 3.5084ZM0.759277 4.15293L0.843652 4.41074H1.11084L0.895215 4.56777L0.977246 4.8209L0.759277 4.66386L0.543652 4.8209L0.625684 4.56543L0.407715 4.4084H0.67959L0.759277 4.15293ZM2.28037 4.15293L2.3624 4.41074H2.63193L2.41396 4.56777L2.49834 4.8209L2.28037 4.66386L2.0624 4.8209L2.14678 4.56543L1.92881 4.4084H2.196L2.28037 4.15293ZM3.79912 4.15293L3.8835 4.41074H4.14834L3.93271 4.56777L4.01475 4.8209L3.79678 4.66386L3.58115 4.8209L3.66318 4.56543L3.44521 4.4084H3.71475L3.79912 4.15293ZM5.32022 4.15293L5.40225 4.41074H5.67178L5.45381 4.56777L5.53818 4.8209L5.32022 4.66386L5.10225 4.8209L5.18662 4.56543L4.96865 4.4084H5.23584L5.32022 4.15293ZM6.83896 4.15293L6.92334 4.41074H7.19053L6.9749 4.56777L7.05693 4.8209L6.83896 4.66386L6.62334 4.8209L6.70537 4.56543L6.48975 4.4084H6.75693L6.83896 4.15293ZM8.36006 4.15293L8.44209 4.41074H8.71162L8.49365 4.56777L8.57803 4.8209L8.36006 4.66386L8.14209 4.8209L8.22647 4.56543L8.0085 4.4084H8.27803L8.36006 4.15293ZM1.521 4.7998L1.60303 5.05527H1.87256L1.65459 5.2123L1.73662 5.47011L1.521 5.31074L1.30303 5.46777L1.38506 5.2123L1.16943 5.05527H1.43662L1.521 4.7998ZM3.03975 4.7998L3.12412 5.05527H3.39131L3.17334 5.2123L3.25771 5.47011L3.03975 5.31074L2.82178 5.46777L2.90615 5.2123L2.68818 5.05527H2.95771L3.03975 4.7998ZM4.56084 4.7998L4.64287 5.05527H4.9124L4.69443 5.2123L4.77646 5.47011L4.56084 5.31074L4.34287 5.46777L4.4249 5.2123L4.20928 5.05527H4.47647L4.56084 4.7998ZM6.07959 4.7998L6.16397 5.05527H6.43115L6.21553 5.2123L6.29756 5.47011L6.07959 5.31074L5.86397 5.46777L5.946 5.2123L5.72803 5.05527H5.9999L6.07959 4.7998ZM7.60068 4.7998L7.68271 5.05527H7.95225L7.73428 5.2123L7.81631 5.47011L7.60068 5.31074L7.38272 5.46777L7.46475 5.2123L7.24912 5.05527H7.51631L7.60068 4.7998ZM0.759277 5.44668L0.843652 5.70215H1.11084L0.895215 5.85918L0.977246 6.11465L0.759277 5.95761L0.543652 6.11465L0.625684 5.85683L0.407715 5.6998H0.67959L0.759277 5.44668ZM2.28037 5.44668L2.3624 5.70215H2.63193L2.41396 5.85918L2.49834 6.11465L2.28037 5.95761L2.0624 6.11465L2.14678 5.85683L1.92881 5.6998H2.196L2.28037 5.44668ZM3.79912 5.44668L3.8835 5.70215H4.14834L3.9374 5.85918L4.01943 6.11465L3.80147 5.95761L3.58584 6.11465L3.66787 5.85683L3.4499 5.6998H3.71943L3.79912 5.44668ZM5.32022 5.44668L5.40225 5.70215H5.67178L5.45381 5.85918L5.53818 6.11465L5.32022 5.95761L5.10225 6.11465L5.18662 5.85683L4.96865 5.6998H5.23584L5.32022 5.44668ZM6.83896 5.44668L6.92334 5.70215H7.19053L6.9749 5.85918L7.05693 6.11465L6.83896 5.95761L6.62334 6.11465L6.70537 5.85683L6.48975 5.6998H6.75693L6.83896 5.44668ZM8.36006 5.44668L8.44209 5.70215H8.71162L8.49365 5.85918L8.57803 6.11465L8.36006 5.95761L8.14209 6.11465L8.22647 5.85683L8.0085 5.6998H8.27803L8.36006 5.44668Z" fill="white"/>
</g>
<defs>
<clipPath id="clip0_787_48247">
<rect width="16" height="12" fill="white"/>
</clipPath>
</defs>
</svg>
