<svg width="144" height="40" viewBox="0 0 144 40" fill="none" xmlns="http://www.w3.org/2000/svg">
<path fill-rule="evenodd" clip-rule="evenodd" d="M33.7343 1.77573C34.2281 1.77573 34.7219 1.74536 35.1231 1.715C35.745 1.715 36.3251 1.7698 36.9009 1.82419L36.9009 1.82419C37.1823 1.85078 37.4627 1.87726 37.7464 1.8972C40.4623 2.10978 42.8387 3.26375 44.9682 4.8125C47.3137 6.5131 49.042 8.72994 50.1531 11.4023C50.3981 12.0144 50.5741 12.6378 50.7513 13.2656L50.7513 13.2657L50.7513 13.2657C50.8643 13.6658 50.9777 14.0676 51.1098 14.4694C51.2024 14.8035 51.3876 15.1375 51.8196 15.0768C52.2209 14.9857 52.4369 14.682 52.4678 14.2872V14.2872C52.4678 14.105 52.4678 13.9532 52.4369 13.771C52.0974 11.2505 51.3258 8.91214 49.8444 6.81677C47.8693 4.02294 45.3077 2.07941 42.098 0.895067C39.3204 -0.137435 36.481 -0.167803 33.6108 0.257345C33.0862 0.348449 32.901 0.621759 32.9319 1.10764C32.9627 1.59353 33.2713 1.77573 33.7343 1.77573ZM35.1546 6.23282C35.2884 6.22607 35.4221 6.21932 35.5558 6.2092C37.3459 6.14846 39.0433 6.60398 40.5247 7.36317C43.2097 8.82082 45.1849 10.8858 46.0491 13.8619C46.089 13.9877 46.1269 14.1114 46.1643 14.2336L46.1643 14.2337C46.2714 14.5836 46.3748 14.9212 46.512 15.2588C46.6663 15.6536 46.9749 15.9572 47.4379 15.8054C47.8391 15.6839 47.9934 15.3499 47.9625 14.9551C47.9525 14.8594 47.9428 14.7636 47.9331 14.668V14.668C47.8536 13.8837 47.7747 13.1046 47.4996 12.3738C46.9441 10.8858 46.1725 9.45854 45.0615 8.2742C44.0121 7.1506 42.8085 6.2092 41.4197 5.57147C39.1359 4.5086 36.7286 4.3264 34.2288 4.66044C33.6424 4.75155 33.3955 5.05522 33.4263 5.51074C33.4263 5.99662 33.735 6.3914 34.3522 6.3003C34.6197 6.25981 34.8871 6.24631 35.1546 6.23282ZM36.296 9.09448C39.7835 8.97301 43.024 11.8579 43.4252 15.2288C43.4252 15.271 43.4319 15.3133 43.439 15.3586L43.439 15.3587C43.4472 15.411 43.4561 15.4674 43.4561 15.5324C43.4561 15.581 43.4573 15.6308 43.4585 15.6811C43.468 16.0705 43.4781 16.4877 42.9314 16.5953C42.3142 16.7168 42.129 16.2613 41.9747 15.8058C41.6043 14.4999 40.9562 13.3763 39.9069 12.4653C38.5798 11.3417 37.1293 10.6432 35.3393 10.704C35.2904 10.7065 35.2408 10.7097 35.191 10.7129C34.6435 10.7478 34.0636 10.7849 33.9505 10.0055C33.8887 9.48926 34.506 9.12485 35.401 9.09448H36.296ZM22.9947 25.6144C23.7045 24.0353 24.5687 22.6384 25.5562 21.2718C26.6364 19.8142 27.8401 18.478 29.1671 17.2633C30.6485 15.9575 32.2225 14.7731 34.0125 13.9228C35.3396 13.3155 36.5741 13.7102 37.6235 14.4998C38.6419 15.2894 39.1357 16.413 38.9197 17.7491C38.6831 19.1751 38.1064 20.5174 37.5426 21.8295L37.5426 21.8295L37.4691 22.0006C36.9445 23.2153 36.2964 24.3997 35.5865 25.5233C34.0125 27.9831 32.1299 30.1695 29.8153 32.022C28.3339 33.2063 26.729 34.2692 25.0316 35.1195C24.9312 35.1677 24.831 35.216 24.7309 35.2644L24.7266 35.2664L24.7251 35.2672C23.5653 35.8272 22.4169 36.3818 21.1121 36.5771C20.0319 36.7593 18.9517 36.5468 17.995 36.0913C15.3408 34.8158 13.057 33.0545 10.8657 31.1413C8.92141 29.4407 7.19312 27.5579 5.74259 25.4929C4.1686 23.3064 2.93411 20.9378 1.91565 18.4172C1.0515 16.2611 0.310804 14.0747 0.033042 11.7667C-0.306444 9.00325 2.00824 6.63456 5.00189 7.12045C6.85363 7.42412 8.36588 8.45662 9.87814 9.48912L9.87814 9.48912L9.87815 9.48913C11.2052 10.4002 12.4706 11.4023 13.6742 12.4652C15.1865 13.8013 16.5444 15.2286 17.8098 16.747C19.4764 18.7817 20.8034 21.0592 22.0071 23.3975C22.13 23.6615 22.2327 23.9334 22.3357 24.2061L22.3357 24.2061C22.5171 24.6863 22.6994 25.1689 22.9947 25.6144ZM34.0738 27.0114C34.6293 26.4951 35.2465 25.3108 35.0614 25.0071C34.475 23.9139 33.8269 22.8814 32.8701 22.0311C31.3579 20.6949 29.5679 20.0268 27.5927 19.8142C27.3766 19.7838 27.1606 19.7838 26.9754 19.9964C26.6668 20.4216 26.3273 20.8467 25.957 21.3022C29.8148 21.697 32.5307 23.5798 34.0738 27.0114ZM35.4317 23.1543C33.7343 20.6945 31.3887 19.2368 28.3642 18.6902C28.9197 17.597 29.5678 17.3236 30.6789 17.5666C33.4565 18.1739 35.3082 19.6012 36.6045 22.0306C36.8514 22.4558 36.4501 23.3061 35.9255 24.0046C35.8096 23.6626 35.6938 23.5089 35.5649 23.3378L35.5648 23.3377L35.5647 23.3377C35.522 23.2809 35.4778 23.2223 35.4317 23.1543ZM37.3768 21.2112C37.4142 21.1376 37.4516 21.0651 37.4886 20.9933C37.7265 20.5321 37.9489 20.101 38.0557 19.6017C38.1175 19.2677 37.994 18.9944 37.8088 18.721C36.8212 17.2634 35.4942 16.1701 33.7659 15.5628C32.4696 15.1073 31.7907 15.2895 30.8339 16.5042C33.735 17.1116 35.8954 18.6907 37.3768 21.2112Z" fill="#FC6634"/>
<path d="M44.0117 24.3084C45.6474 23.5796 47.1905 23.0633 48.9188 23.3974C52.7766 24.187 54.9678 27.9525 53.9802 31.5056C52.9926 35.089 48.9188 37.1236 45.5239 35.8482C42.6537 34.7853 41.0489 32.3862 41.1415 29.3191C41.2341 26.0394 41.5118 22.7597 42.0365 19.48C42.0982 19.0244 42.1599 18.5689 42.1291 18.083C42.0982 17.5061 42.376 17.4757 42.8081 17.5668C44.0117 17.8097 44.6907 18.8726 44.4746 20.148C44.3512 20.8161 44.2277 21.4842 44.1969 22.1827C44.1351 22.9115 44.0734 23.5492 44.0117 24.3084ZM47.6843 33.7224C49.8138 33.9046 51.7273 31.9307 51.7273 29.7746C51.7273 27.5578 49.7521 25.7661 47.6843 25.7964C45.4931 25.8268 43.6413 27.6185 43.6413 29.7746C43.6413 31.8396 45.4622 33.8743 47.6843 33.7224Z" fill="#FC6634"/>
<path d="M61.0484 36.2122C56.1413 36.2122 53.055 31.2927 55.1228 27.0108C56.7277 23.6703 60.5855 22.3342 64.1655 24.0651C65.7395 24.8243 65.7086 26.9197 64.8754 27.7396C63.394 29.1973 61.9126 30.6549 60.4312 32.1126C60.1225 32.4466 59.5361 32.7199 59.7522 33.2969C59.9682 33.9043 60.5855 33.6917 61.0484 33.6917C62.8693 33.7221 64.0729 32.811 64.7828 31.2319C65.0297 30.6853 65.184 30.0172 66.0481 29.9868C66.974 29.9565 67.5604 30.6246 67.3444 31.5356C66.7271 34.208 63.7026 36.3944 61.0484 36.2122ZM57.0054 29.9565C57.0363 30.0476 57.0363 30.3209 57.1289 30.5638C57.2832 31.1104 57.8079 31.2623 58.1782 30.8675C59.4744 29.5617 60.7706 28.2559 62.0669 26.9501C62.252 26.7375 62.5607 26.5857 62.4064 26.2212C62.252 25.9176 61.9743 25.8265 61.6657 25.7961C59.2275 25.4924 57.0054 27.2841 57.0054 29.9565Z" fill="#FC6634"/>
<path d="M67.8996 29.8352C67.7144 27.922 68.486 26.3429 69.813 25.0978C71.4487 23.5794 74.1646 22.6684 76.6953 23.7616C77.4052 24.0653 78.115 24.3386 78.4854 25.0674C79.01 26.191 78.8248 27.1628 77.899 28.0435C76.4484 29.4404 75.0288 30.8677 73.5782 32.2949C73.3005 32.5683 72.8684 32.8416 73.0844 33.3274C73.2696 33.8133 73.7325 33.6615 74.1029 33.6919C76.1398 33.9044 77.6212 32.5986 78.3002 30.8069C78.5779 30.0477 79.1026 29.8048 79.905 30.0174C80.4914 30.1996 80.8618 30.8373 80.6766 31.475C79.9359 34.0563 77.4978 36.0909 74.6893 36.2124C72.2203 36.3338 70.3377 35.271 68.918 33.4185C68.1156 32.4164 67.7453 31.141 67.8996 29.8352ZM74.3498 25.7962C73.177 25.6748 72.282 26.2214 71.5413 26.8591C70.4303 27.8005 70.1834 29.1063 70.3994 30.5336C70.4303 30.7462 70.3994 30.9891 70.6772 31.0802C70.9549 31.141 71.2018 31.1106 71.4179 30.898C72.745 29.5922 74.072 28.2864 75.3991 26.9806C75.5843 26.7984 75.8621 26.6162 75.7077 26.3125C75.5843 25.9785 75.2757 25.857 74.9362 25.857C74.751 25.7962 74.535 25.7962 74.3498 25.7962Z" fill="#FC6634"/>
<path d="M98.917 21L99.5645 18.8481H102.383L103.024 21H104.985L102.129 12.3354H99.9517L97.0825 21H98.917ZM101.024 14.062L102.027 17.4961H99.9263L100.942 14.062H101.024ZM107.81 21V12.3354H105.969V21H107.81ZM113.669 16.1948C113.669 14.5317 114.386 13.7129 115.484 13.7129C116.576 13.7129 117.154 14.5381 117.154 15.4268H118.918V15.2427C118.918 13.5669 117.617 12.1704 115.472 12.1704C113.174 12.1704 111.803 13.6558 111.803 16.1885V17.166C111.803 19.6987 113.161 21.165 115.465 21.165C117.668 21.165 118.918 19.7495 118.918 18.1753V17.9849H117.154C117.154 18.8799 116.589 19.6226 115.497 19.6226C114.38 19.6226 113.669 18.8418 113.669 17.1724V16.1948ZM123.92 20.1494H123.997V21H125.679V16.4424C125.679 14.7793 124.517 14.1445 122.911 14.1445C120.88 14.1445 120.175 15.2046 120.131 16.3408H121.813C121.857 15.833 122.194 15.4902 122.873 15.4902C123.527 15.4902 123.914 15.7759 123.914 16.3916V17.0454H122.289C120.728 17.0454 119.883 17.8389 119.883 19.0576C119.883 20.3271 120.791 21.1016 122.105 21.1016C123.102 21.1016 123.667 20.6382 123.92 20.1494ZM122.695 19.8193C122.162 19.8193 121.654 19.5273 121.654 18.9307C121.654 18.4355 122.01 18.0928 122.714 18.0928H123.914V18.7593C123.914 19.375 123.368 19.8193 122.695 19.8193ZM127.291 21H129.081V11.8784H127.291V21ZM130.782 21H132.572V11.8784H130.782V21ZM99.4121 32.1948C99.4121 30.5317 100.129 29.7129 101.228 29.7129C102.319 29.7129 102.897 30.5381 102.897 31.4268H104.662V31.2427C104.662 29.5669 103.36 28.1704 101.215 28.1704C98.917 28.1704 97.5459 29.6558 97.5459 32.1885V33.166C97.5459 35.6987 98.9043 37.165 101.208 37.165C103.411 37.165 104.662 35.7495 104.662 34.1753V33.9849H102.897C102.897 34.8799 102.332 35.6226 101.24 35.6226C100.123 35.6226 99.4121 34.8418 99.4121 33.1724V32.1948ZM108.781 37.1206C110.793 37.1206 111.568 35.8638 111.65 34.9243H109.981C109.917 35.3813 109.511 35.7622 108.775 35.7622C107.899 35.7622 107.41 35.083 107.41 34.2261V33.9976H111.708V33.3628C111.708 31.4077 110.603 30.1255 108.692 30.1255C106.871 30.1255 105.658 31.3252 105.658 33.3691V33.896C105.658 35.9399 106.826 37.1206 108.781 37.1206ZM107.41 32.9058V32.8931C107.41 32.0552 107.912 31.4458 108.705 31.4458C109.505 31.4458 109.987 32.0488 109.987 32.8931V32.9058H107.41ZM112.983 37H114.767V33.1216C114.767 32.1377 115.281 31.6553 116.037 31.6553C116.748 31.6553 117.274 32.0361 117.274 33.0835V37H119.058V32.563C119.058 30.9697 118.087 30.1445 116.748 30.1445C115.662 30.1445 115.015 30.7349 114.799 31.249H114.723V30.2461H112.983V37ZM121.058 30.3286H120.055V31.6934H121.02V35.083C121.02 36.4731 121.616 37.0317 123.311 37.0317C123.673 37.0317 123.978 37 124.117 36.9746V35.6606C124.041 35.6733 123.895 35.6733 123.749 35.6733C123.076 35.6733 122.791 35.4702 122.791 34.8228V31.6934H124.092V30.3286H122.791V28.6528H121.058V30.3286ZM128.154 37.1206C130.167 37.1206 130.941 35.8638 131.023 34.9243H129.354C129.291 35.3813 128.884 35.7622 128.148 35.7622C127.272 35.7622 126.783 35.083 126.783 34.2261V33.9976H131.081V33.3628C131.081 31.4077 129.976 30.1255 128.065 30.1255C126.244 30.1255 125.031 31.3252 125.031 33.3691V33.896C125.031 35.9399 126.199 37.1206 128.154 37.1206ZM126.783 32.9058V32.8931C126.783 32.0552 127.285 31.4458 128.078 31.4458C128.878 31.4458 129.36 32.0488 129.36 32.8931V32.9058H126.783ZM132.414 37H134.248V33.2041C134.248 32.2964 134.629 31.668 135.708 31.668C135.981 31.668 136.26 31.6934 136.394 31.7378V30.2017C136.267 30.1699 136.089 30.1509 135.841 30.1509C134.826 30.1509 134.426 30.7476 134.28 31.1792H134.204V30.2461H132.414V37Z" fill="#FC6634"/>
<line x1="89.5" y1="14" x2="89.5" y2="39" stroke="#FC6634"/>
</svg>
