<svg width="41" height="19" viewBox="0 0 41 19" fill="none" xmlns="http://www.w3.org/2000/svg">
<path fill-rule="evenodd" clip-rule="evenodd" d="M17.0754 0.911862C17.3253 0.911862 17.5753 0.896268 17.7783 0.880674C18.0931 0.880674 18.3868 0.908816 18.6782 0.936746C18.8207 0.950398 18.9626 0.964 19.1062 0.974239C20.4809 1.0834 21.6838 1.67598 22.7617 2.47129C23.9489 3.34456 24.8237 4.48294 25.3861 5.85524C25.5102 6.16954 25.5992 6.48966 25.6889 6.81205L25.6889 6.81208L25.6889 6.81212C25.7461 7.01755 25.8035 7.2239 25.8704 7.43025C25.9173 7.60179 26.011 7.77333 26.2297 7.74214C26.4328 7.69535 26.5421 7.53941 26.5577 7.33669V7.33665C26.5577 7.2431 26.5577 7.16514 26.5421 7.07158C26.3703 5.77726 25.9797 4.57651 25.2299 3.5005C24.2301 2.06584 22.9335 1.0678 21.3089 0.459629C19.9029 -0.0705749 18.4657 -0.0861689 17.0129 0.13215C16.7473 0.178933 16.6536 0.319282 16.6692 0.568789C16.6848 0.818297 16.841 0.911862 17.0754 0.911862ZM17.7943 3.20071C17.862 3.19724 17.9297 3.19378 17.9974 3.18858C18.9035 3.15739 19.7627 3.39131 20.5125 3.78116C21.8716 4.52969 22.8714 5.59009 23.3088 7.11833C23.329 7.18293 23.3482 7.24649 23.3672 7.30927C23.4214 7.48897 23.4737 7.66231 23.5431 7.83566C23.6212 8.03839 23.7775 8.19433 24.0118 8.11636C24.2149 8.05398 24.293 7.88245 24.2774 7.67972C24.2723 7.63056 24.2674 7.5814 24.2625 7.53227V7.53225C24.2222 7.12952 24.1823 6.72948 24.043 6.35421C23.7618 5.59009 23.3713 4.85716 22.8089 4.24899C22.2778 3.672 21.6685 3.18858 20.9656 2.8611C19.8095 2.3153 18.5911 2.22174 17.3257 2.39327C17.0289 2.44006 16.9039 2.596 16.9195 2.82991C16.9195 3.07942 17.0757 3.28215 17.3882 3.23536C17.5236 3.21457 17.659 3.20764 17.7943 3.20071ZM18.3721 4.67012C20.1373 4.60774 21.7776 6.0892 21.9807 7.82016C21.9807 7.84187 21.9841 7.86358 21.9877 7.88685L21.9877 7.88689C21.9918 7.91375 21.9963 7.94269 21.9963 7.9761C21.9963 8.00106 21.9969 8.02662 21.9976 8.05243C22.0023 8.25238 22.0075 8.46665 21.7308 8.5219C21.4183 8.58428 21.3246 8.35036 21.2465 8.11645C21.059 7.4459 20.731 6.86891 20.1998 6.40108C19.5281 5.8241 18.7939 5.46543 17.8878 5.49662C17.8631 5.49791 17.838 5.49954 17.8128 5.50117L17.8128 5.50118C17.5356 5.51914 17.2421 5.53817 17.1848 5.13795C17.1536 4.87285 17.466 4.68571 17.9191 4.67012H18.3721ZM11.6393 13.1534C11.9986 12.3425 12.436 11.6252 12.9359 10.9234C13.4827 10.1749 14.0919 9.48877 14.7637 8.865C15.5135 8.19445 16.3102 7.58628 17.2163 7.14964C17.888 6.83775 18.5129 7.04048 19.044 7.44593C19.5595 7.85138 19.8095 8.42836 19.7001 9.11451C19.5804 9.84676 19.2884 10.5361 19.0031 11.2098L19.0031 11.2099L18.9659 11.2977C18.7003 11.9215 18.3723 12.5297 18.013 13.1066C17.2163 14.3698 16.2633 15.4926 15.0917 16.4438C14.3419 17.052 13.5295 17.5978 12.6703 18.0344L12.5152 18.1103C11.9282 18.3978 11.3469 18.6826 10.6864 18.7829C10.1396 18.8765 9.59286 18.7673 9.10859 18.5334C7.76512 17.8785 6.60912 16.974 5.49998 15.9916C4.51581 15.1183 3.64099 14.1515 2.90677 13.091C2.11007 11.9683 1.4852 10.7519 0.96968 9.45758C0.532272 8.35039 0.157351 7.22761 0.0167559 6.04245C-0.155083 4.62337 1.01655 3.40702 2.53185 3.65653C3.46915 3.81247 4.23461 4.34267 5.00007 4.87287L5.00008 4.87288L5.00008 4.87288C5.67181 5.34071 6.31231 5.85532 6.92155 6.40111C7.68702 7.08726 8.37437 7.82019 9.01486 8.5999C9.85843 9.64472 10.5302 10.8143 11.1394 12.015C11.2016 12.1506 11.2536 12.2902 11.3058 12.4302C11.3976 12.6768 11.4898 12.9247 11.6393 13.1534ZM17.2473 13.8707C17.5284 13.6056 17.8409 12.9974 17.7471 12.8415C17.4503 12.2801 17.1223 11.7499 16.638 11.3133C15.8725 10.6271 14.9665 10.284 13.9667 10.1749C13.8573 10.1593 13.748 10.1593 13.6543 10.2684C13.498 10.4868 13.3262 10.7051 13.1387 10.939C15.0915 11.1417 16.4662 12.1086 17.2473 13.8707ZM17.9346 11.8901C17.0754 10.6269 15.8881 9.8784 14.3572 9.5977C14.6384 9.03631 14.9665 8.89596 15.5288 9.02071C16.9348 9.3326 17.8721 10.0655 18.5282 11.3131C18.6532 11.5314 18.4501 11.968 18.1845 12.3267C18.1259 12.1511 18.0673 12.0722 18.002 11.9843C17.9803 11.9552 17.958 11.925 17.9346 11.8901ZM18.9191 10.8924C18.9381 10.8546 18.957 10.8174 18.9757 10.7805C19.0962 10.5436 19.2087 10.3223 19.2628 10.0659C19.2941 9.89436 19.2316 9.75401 19.1378 9.61366C18.6379 8.86514 17.9662 8.30374 17.0914 7.99186C16.4353 7.75794 16.0916 7.85151 15.6073 8.47528C17.0758 8.78717 18.1693 9.59807 18.9191 10.8924Z" fill="#BABFC7"/>
<path d="M22.2775 12.4827C23.1054 12.1084 23.8865 11.8433 24.7613 12.0148C26.7141 12.4203 27.8232 14.354 27.3233 16.1785C26.8234 18.0186 24.7613 19.0634 23.043 18.4085C21.5901 17.8627 20.7778 16.6307 20.8247 15.0557C20.8715 13.3715 21.0121 11.6873 21.2777 10.0032C21.3089 9.76926 21.3402 9.53535 21.3246 9.28584C21.3089 8.98955 21.4495 8.97395 21.6682 9.02074C22.2775 9.14549 22.6212 9.69129 22.5118 10.3462C22.4493 10.6893 22.3868 11.0324 22.3712 11.3911C22.34 11.7653 22.3087 12.0928 22.2775 12.4827ZM24.1365 17.3169C25.2144 17.4104 26.1829 16.3968 26.1829 15.2896C26.1829 14.1512 25.1831 13.2312 24.1365 13.2468C23.0273 13.2624 22.09 14.1824 22.09 15.2896C22.09 16.35 23.0117 17.3948 24.1365 17.3169Z" fill="#BABFC7"/>
<path d="M30.9012 18.5955C28.4174 18.5955 26.8552 16.0692 27.9019 13.8704C28.7142 12.155 30.6669 11.4689 32.479 12.3578C33.2757 12.7476 33.2601 13.8236 32.8383 14.2447C32.0885 14.9932 31.3386 15.7417 30.5888 16.4902C30.4326 16.6618 30.1358 16.8021 30.2451 17.0984C30.3545 17.4103 30.6669 17.3011 30.9012 17.3011C31.8229 17.3167 32.4322 16.8489 32.7915 16.038C32.9164 15.7573 32.9946 15.4142 33.432 15.3986C33.9006 15.383 34.1974 15.7261 34.0881 16.1939C33.7756 17.5662 32.2447 18.689 30.9012 18.5955ZM28.8548 15.383C28.8704 15.4298 28.8704 15.5702 28.9173 15.6949C28.9954 15.9756 29.261 16.0536 29.4484 15.8509C30.1045 15.1803 30.7606 14.5098 31.4168 13.8392C31.5105 13.73 31.6667 13.6521 31.5886 13.4649C31.5105 13.309 31.3699 13.2622 31.2137 13.2466C29.9796 13.0907 28.8548 14.0107 28.8548 15.383Z" fill="#BABFC7"/>
<path d="M34.3689 15.3206C34.2752 14.3382 34.6658 13.5273 35.3375 12.8879C36.1654 12.1082 37.5401 11.6404 38.8211 12.2018C39.1804 12.3577 39.5397 12.498 39.7272 12.8723C39.9927 13.4493 39.899 13.9483 39.4304 14.4005C38.6961 15.1179 37.9775 15.8508 37.2433 16.5837C37.1027 16.7241 36.884 16.8644 36.9934 17.1139C37.0871 17.3634 37.3214 17.2855 37.5089 17.3011C38.5399 17.4102 39.2898 16.7397 39.6334 15.8196C39.774 15.4298 40.0396 15.305 40.4458 15.4142C40.7426 15.5077 40.93 15.8352 40.8363 16.1627C40.4614 17.4882 39.2273 18.533 37.8057 18.5954C36.556 18.6578 35.6031 18.112 34.8845 17.1607C34.4783 16.6461 34.2908 15.9912 34.3689 15.3206ZM37.6339 13.2466C37.0402 13.1842 36.5872 13.4649 36.2123 13.7924C35.6499 14.2758 35.5249 14.9463 35.6343 15.6793C35.6499 15.7884 35.6343 15.9132 35.7749 15.96C35.9155 15.9912 36.0405 15.9756 36.1498 15.8664C36.8215 15.1958 37.4933 14.5253 38.165 13.8547C38.2587 13.7612 38.3993 13.6676 38.3212 13.5117C38.2587 13.3401 38.1025 13.2778 37.9307 13.2778C37.837 13.2466 37.7276 13.2466 37.6339 13.2466Z" fill="#BABFC7"/>
</svg>
