<svg width="80" height="80" viewBox="0 0 80 80" fill="none" xmlns="http://www.w3.org/2000/svg">
<path fill-rule="evenodd" clip-rule="evenodd" d="M3.33325 39.9997C3.33325 60.333 19.6666 76.6663 39.9999 76.6663C60.3332 76.6663 76.6666 60.333 76.6666 39.9997C76.6666 19.6663 60.3332 3.33301 39.9999 3.33301C19.6666 3.33301 3.33325 19.6663 3.33325 39.9997ZM9.99992 39.9997C9.99992 23.333 23.3333 9.99967 39.9999 9.99967C56.6666 9.99967 69.9999 23.333 69.9999 39.9997C69.9999 56.6663 56.6666 69.9997 39.9999 69.9997C23.3333 69.9997 9.99992 56.6663 9.99992 39.9997ZM43.3333 39.9997V26.6663C43.3333 24.6663 41.9999 23.333 39.9999 23.333C37.9999 23.333 36.6666 24.6663 36.6666 26.6663V39.9997C36.6666 41.9997 37.9999 43.333 39.9999 43.333C41.9999 43.333 43.3333 41.9997 43.3333 39.9997ZM42.9999 54.6663C42.9999 54.9997 42.6666 55.333 42.3332 55.6663C41.6666 56.333 40.9999 56.6663 39.6666 56.6663C38.6666 56.6663 37.9999 56.333 37.3333 55.6663C36.6666 54.9997 36.3333 54.333 36.3333 53.333C36.3333 52.9425 36.4476 52.6663 36.5424 52.4376C36.6094 52.2758 36.6666 52.1377 36.6666 51.9997C36.6666 51.6663 36.9999 51.333 37.3333 50.9997C38.3333 49.9997 39.6666 49.6663 40.9999 50.333C41.1666 50.333 41.2499 50.4163 41.3332 50.4997C41.4166 50.583 41.4999 50.6663 41.6666 50.6663C41.9999 50.6663 42.3332 50.9997 42.3332 50.9997C42.4999 51.1663 42.5832 51.333 42.6666 51.4997C42.7499 51.6663 42.8332 51.833 42.9999 51.9997C43.3332 52.333 43.3332 52.9997 43.3332 53.333C43.3332 53.4997 43.2499 53.7497 43.1666 53.9997C43.0832 54.2497 42.9999 54.4997 42.9999 54.6663Z" fill="black"/>
<mask id="mask0_477_35951" style="mask-type:alpha" maskUnits="userSpaceOnUse" x="3" y="3" width="74" height="74">
<path fill-rule="evenodd" clip-rule="evenodd" d="M3.33325 39.9997C3.33325 60.333 19.6666 76.6663 39.9999 76.6663C60.3332 76.6663 76.6666 60.333 76.6666 39.9997C76.6666 19.6663 60.3332 3.33301 39.9999 3.33301C19.6666 3.33301 3.33325 19.6663 3.33325 39.9997ZM9.99992 39.9997C9.99992 23.333 23.3333 9.99967 39.9999 9.99967C56.6666 9.99967 69.9999 23.333 69.9999 39.9997C69.9999 56.6663 56.6666 69.9997 39.9999 69.9997C23.3333 69.9997 9.99992 56.6663 9.99992 39.9997ZM43.3333 39.9997V26.6663C43.3333 24.6663 41.9999 23.333 39.9999 23.333C37.9999 23.333 36.6666 24.6663 36.6666 26.6663V39.9997C36.6666 41.9997 37.9999 43.333 39.9999 43.333C41.9999 43.333 43.3333 41.9997 43.3333 39.9997ZM42.9999 54.6663C42.9999 54.9997 42.6666 55.333 42.3332 55.6663C41.6666 56.333 40.9999 56.6663 39.6666 56.6663C38.6666 56.6663 37.9999 56.333 37.3333 55.6663C36.6666 54.9997 36.3333 54.333 36.3333 53.333C36.3333 52.9425 36.4476 52.6663 36.5424 52.4376C36.6094 52.2758 36.6666 52.1377 36.6666 51.9997C36.6666 51.6663 36.9999 51.333 37.3333 50.9997C38.3333 49.9997 39.6666 49.6663 40.9999 50.333C41.1666 50.333 41.2499 50.4163 41.3332 50.4997C41.4166 50.583 41.4999 50.6663 41.6666 50.6663C41.9999 50.6663 42.3332 50.9997 42.3332 50.9997C42.4999 51.1663 42.5832 51.333 42.6666 51.4997C42.7499 51.6663 42.8332 51.833 42.9999 51.9997C43.3332 52.333 43.3332 52.9997 43.3332 53.333C43.3332 53.4997 43.2499 53.7497 43.1666 53.9997C43.0832 54.2497 42.9999 54.4997 42.9999 54.6663Z" fill="white"/>
</mask>
<g mask="url(#mask0_477_35951)">
<rect width="80" height="80" fill="#EA5455"/>
</g>
</svg>
