<svg width="16" height="16" viewBox="0 0 16 16" fill="none" xmlns="http://www.w3.org/2000/svg">
<path d="M14.3003 9.875C13.8003 9.325 13.2503 8.7 13.2503 7.5V5.45C13.2503 2.675 10.8003 0.25 8.00029 0.25C5.20029 0.25 2.75029 2.7 2.75029 5.5V7.5C2.75029 8.7 2.20029 9.325 1.70029 9.875C1.30029 10.325 0.925293 10.75 0.925293 11.4C0.925293 12.775 3.77529 13.7 8.00029 13.7C12.2253 13.7 15.0753 12.775 15.0753 11.4C15.0753 10.775 14.7003 10.325 14.3003 9.875Z" fill="#393F49"/>
<path d="M8.00078 14.1996C7.22578 14.1996 6.47578 14.1746 5.80078 14.0996C6.07578 15.0496 6.95078 15.7246 8.00078 15.7246C9.05078 15.7246 9.92578 15.0246 10.2008 14.0996C9.52578 14.1746 8.77578 14.1996 8.00078 14.1996Z" fill="#393F49"/>
</svg>
