<svg width="18" height="18" viewBox="0 0 18 18" fill="none" xmlns="http://www.w3.org/2000/svg">
<path d="M0 9C0 4.02944 4.02944 0 9 0V0C13.9706 0 18 4.02944 18 9V9C18 13.9706 13.9706 18 9 18V18C4.02944 18 0 13.9706 0 9V9Z" fill="#28C76F"/>
<path d="M13.369 10.8435C12.6981 10.8435 12.049 10.7345 11.4435 10.5381C11.2526 10.4726 11.0399 10.5217 10.8926 10.669L10.0363 11.7435C8.49264 11.0072 7.04718 9.61627 6.27809 8.01809L7.34173 7.11264C7.489 6.95991 7.53264 6.74718 7.47264 6.55627C7.27082 5.95082 7.16718 5.30173 7.16718 4.63082C7.16718 4.33627 6.92173 4.09082 6.62718 4.09082H4.73991C4.44537 4.09082 4.09082 4.22173 4.09082 4.63082C4.09082 9.69809 8.30718 13.909 13.369 13.909C13.7563 13.909 13.909 13.5654 13.909 13.2654V11.3835C13.909 11.089 13.6635 10.8435 13.369 10.8435Z" fill="white"/>
</svg>
